<?xml version="1.0" encoding="UTF-8"?>
<svg version="1.1" xmlns="http://www.w3.org/2000/svg" width="512" height="512">
<path d="M0 0 C1.82758079 -0.00233999 1.82758079 -0.00233999 3.69208241 -0.00472724 C7.04787174 -0.00800882 10.40360454 -0.00685069 13.75939035 -0.00374103 C17.38861688 -0.00146842 21.01783864 -0.00497578 24.64706421 -0.00772095 C31.7464388 -0.01215775 38.84580279 -0.01121147 45.94517779 -0.00830831 C51.71716572 -0.00604606 57.48915068 -0.00574531 63.26113892 -0.00683212 C64.4953622 -0.00706197 64.4953622 -0.00706197 65.75451928 -0.00729647 C67.42627263 -0.0076162 69.09802598 -0.00794042 70.76977932 -0.00826906 C86.43034125 -0.01111773 102.09089732 -0.00784643 117.75145829 -0.00246869 C131.176675 0.00199879 144.60188306 0.00122269 158.02709961 -0.00338745 C173.63323833 -0.00874403 189.23937192 -0.01084309 204.84551144 -0.00777519 C206.51097043 -0.00745665 208.17642943 -0.00714228 209.84188843 -0.00683212 C210.66123629 -0.00667785 211.48058415 -0.00652357 212.32476074 -0.00636462 C218.08700199 -0.00550272 223.84923997 -0.00695531 229.61148071 -0.00931168 C236.63773451 -0.0121219 243.66397713 -0.01134564 250.69022965 -0.00603093 C254.27221557 -0.00341041 257.85418291 -0.00236081 261.43616867 -0.00568008 C265.32513198 -0.0092292 269.21406512 -0.00497932 273.10302734 0 C274.78835681 -0.00334608 274.78835681 -0.00334608 276.50773335 -0.00675976 C294.46228552 0.03775549 294.46228552 0.03775549 297.55151367 3.12698364 C300.13505586 3.29385812 300.13505586 3.29385812 302.55151367 3.12698364 C302.88151367 3.78698364 303.21151367 4.44698364 303.55151367 5.12698364 C305.87307964 5.53427592 308.20839237 5.87137041 310.55151367 6.12698364 C310.55151367 6.78698364 310.55151367 7.44698364 310.55151367 8.12698364 C312.20151367 8.12698364 313.85151367 8.12698364 315.55151367 8.12698364 C315.55151367 8.78698364 315.55151367 9.44698364 315.55151367 10.12698364 C317.86151367 10.12698364 320.17151367 10.12698364 322.55151367 10.12698364 C322.55151367 11.11698364 322.55151367 12.10698364 322.55151367 13.12698364 C323.21151367 13.12698364 323.87151367 13.12698364 324.55151367 13.12698364 C324.55151367 13.78698364 324.55151367 14.44698364 324.55151367 15.12698364 C326.20151367 15.12698364 327.85151367 15.12698364 329.55151367 15.12698364 C329.55151367 15.78698364 329.55151367 16.44698364 329.55151367 17.12698364 C330.31463867 17.04448364 331.07776367 16.96198364 331.86401367 16.87698364 C332.75088867 16.95948364 333.63776367 17.04198364 334.55151367 17.12698364 C335.59776776 18.42433871 336.5985259 19.75965336 337.55151367 21.12698364 C339.64567171 21.92322186 339.64567171 21.92322186 341.55151367 22.12698364 C341.55151367 22.78698364 341.55151367 23.44698364 341.55151367 24.12698364 C342.54151367 24.12698364 343.53151367 24.12698364 344.55151367 24.12698364 C347.23901367 26.50198364 347.23901367 26.50198364 349.55151367 29.12698364 C349.55151367 29.78698364 349.55151367 30.44698364 349.55151367 31.12698364 C350.21151367 31.12698364 350.87151367 31.12698364 351.55151367 31.12698364 C353.17651367 32.50198364 353.17651367 32.50198364 354.55151367 34.12698364 C354.55151367 34.78698364 354.55151367 35.44698364 354.55151367 36.12698364 C355.21151367 36.12698364 355.87151367 36.12698364 356.55151367 36.12698364 C356.55151367 36.78698364 356.55151367 37.44698364 356.55151367 38.12698364 C357.54151367 38.12698364 358.53151367 38.12698364 359.55151367 38.12698364 C359.55151367 38.78698364 359.55151367 39.44698364 359.55151367 40.12698364 C360.21151367 40.12698364 360.87151367 40.12698364 361.55151367 40.12698364 C363.1864873 41.86858598 364.62936759 43.72507958 366.11401367 45.59573364 C366.82557617 46.35370239 366.82557617 46.35370239 367.55151367 47.12698364 C368.21151367 47.12698364 368.87151367 47.12698364 369.55151367 47.12698364 C369.55151367 48.77698364 369.55151367 50.42698364 369.55151367 52.12698364 C370.21151367 52.12698364 370.87151367 52.12698364 371.55151367 52.12698364 C373.55151367 54.12698364 373.55151367 54.12698364 373.86401367 56.00198364 C374.85559541 59.06687266 377.07793657 60.16080697 379.55151367 62.12698364 C379.55151367 63.11698364 379.55151367 64.10698364 379.55151367 65.12698364 C380.21151367 65.45698364 380.87151367 65.78698364 381.55151367 66.12698364 C381.55151367 67.77698364 381.55151367 69.42698364 381.55151367 71.12698364 C382.21151367 71.12698364 382.87151367 71.12698364 383.55151367 71.12698364 C383.88151367 73.10698364 384.21151367 75.08698364 384.55151367 77.12698364 C385.21151367 77.12698364 385.87151367 77.12698364 386.55151367 77.12698364 C386.55151367 78.77698364 386.55151367 80.42698364 386.55151367 82.12698364 C387.21151367 82.12698364 387.87151367 82.12698364 388.55151367 82.12698364 C388.55151367 85.09698364 388.55151367 88.06698364 388.55151367 91.12698364 C389.54151367 91.12698364 390.53151367 91.12698364 391.55151367 91.12698364 C392.52609068 98.44694728 392.69242806 105.61427578 392.67849731 112.99343872 C392.68005731 114.26884679 392.6816173 115.54425486 392.68322456 116.85831165 C392.68737993 120.37790204 392.6853444 123.89746515 392.68223834 127.41705561 C392.67996896 131.22078793 392.6834715 135.02451567 392.68621826 138.82824707 C392.69065849 146.27166428 392.68970725 153.71507139 392.68680562 161.15848899 C392.68454473 167.20939959 392.68424204 173.26030736 392.68532944 179.31121826 C392.68555929 180.60436045 392.68555929 180.60436045 392.68579378 181.92362672 C392.68611351 183.67510533 392.68643773 185.42658395 392.68676637 187.17806256 C392.68961604 203.59112682 392.68634217 220.0041855 392.680966 236.41724885 C392.67649843 250.49204606 392.67727451 264.56683502 392.68188477 278.64163208 C392.68723957 294.99706883 392.6893414 311.35250069 392.6862725 327.70793819 C392.68595396 329.45287514 392.68563959 331.19781208 392.68532944 332.94274902 C392.68517516 333.80123013 392.68502089 334.65971123 392.68486194 335.54420692 C392.6839995 341.58593 392.68545377 347.62764996 392.68780899 353.66937256 C392.69061724 361.03494062 392.68984709 368.40049803 392.68452825 375.76606488 C392.68190508 379.52209258 392.68086268 383.27810254 392.6841774 387.0341301 C392.68771957 391.10961162 392.68348216 395.18504856 392.67849731 399.26052856 C392.68072804 400.44214978 392.68295876 401.623771 392.68525708 402.84119892 C392.67059487 409.02144999 392.36735223 414.99929082 391.55151367 421.12698364 C390.56151367 421.12698364 389.57151367 421.12698364 388.55151367 421.12698364 C388.55151367 423.43698364 388.55151367 425.74698364 388.55151367 428.12698364 C387.89151367 428.12698364 387.23151367 428.12698364 386.55151367 428.12698364 C386.55151367 430.43698364 386.55151367 432.74698364 386.55151367 435.12698364 C385.56151367 435.12698364 384.57151367 435.12698364 383.55151367 435.12698364 C383.55151367 436.44698364 383.55151367 437.76698364 383.55151367 439.12698364 C382.89151367 439.12698364 382.23151367 439.12698364 381.55151367 439.12698364 C381.63401367 440.22010864 381.71651367 441.31323364 381.80151367 442.43948364 C381.71901367 443.65635864 381.63651367 444.87323364 381.55151367 446.12698364 C379.61401367 447.81448364 379.61401367 447.81448364 377.55151367 449.12698364 C376.75527545 451.22114168 376.75527545 451.22114168 376.55151367 453.12698364 C375.89151367 453.12698364 375.23151367 453.12698364 374.55151367 453.12698364 C374.55151367 454.77698364 374.55151367 456.42698364 374.55151367 458.12698364 C373.56151367 458.12698364 372.57151367 458.12698364 371.55151367 458.12698364 C371.55151367 458.78698364 371.55151367 459.44698364 371.55151367 460.12698364 C370.89151367 460.12698364 370.23151367 460.12698364 369.55151367 460.12698364 C369.55151367 461.77698364 369.55151367 463.42698364 369.55151367 465.12698364 C368.89151367 465.12698364 368.23151367 465.12698364 367.55151367 465.12698364 C365.06396611 467.4231814 362.87499382 469.66664651 360.92651367 472.43948364 C360.24588867 473.27479614 360.24588867 473.27479614 359.55151367 474.12698364 C358.56151367 474.12698364 357.57151367 474.12698364 356.55151367 474.12698364 C356.55151367 474.78698364 356.55151367 475.44698364 356.55151367 476.12698364 C355.89151367 476.12698364 355.23151367 476.12698364 354.55151367 476.12698364 C354.55151367 477.11698364 354.55151367 478.10698364 354.55151367 479.12698364 C353.56151367 479.12698364 352.57151367 479.12698364 351.55151367 479.12698364 C351.55151367 479.78698364 351.55151367 480.44698364 351.55151367 481.12698364 C350.89151367 481.12698364 350.23151367 481.12698364 349.55151367 481.12698364 C349.55151367 481.78698364 349.55151367 482.44698364 349.55151367 483.12698364 C347.23901367 485.75198364 347.23901367 485.75198364 344.55151367 488.12698364 C343.56151367 488.12698364 342.57151367 488.12698364 341.55151367 488.12698364 C341.55151367 488.78698364 341.55151367 489.44698364 341.55151367 490.12698364 C340.23151367 490.12698364 338.91151367 490.12698364 337.55151367 490.12698364 C337.55151367 490.78698364 337.55151367 491.44698364 337.55151367 492.12698364 C336.36401367 493.75198364 336.36401367 493.75198364 334.55151367 495.12698364 C331.86401367 495.31448364 331.86401367 495.31448364 329.55151367 495.12698364 C329.55151367 495.78698364 329.55151367 496.44698364 329.55151367 497.12698364 C327.24151367 498.11698364 324.93151367 499.10698364 322.55151367 500.12698364 C322.55151367 500.78698364 322.55151367 501.44698364 322.55151367 502.12698364 C320.90151367 502.45698364 319.25151367 502.78698364 317.55151367 503.12698364 C317.55151367 503.45698364 317.55151367 503.78698364 317.55151367 504.12698364 C314.91151367 504.12698364 312.27151367 504.12698364 309.55151367 504.12698364 C309.55151367 504.78698364 309.55151367 505.44698364 309.55151367 506.12698364 C308.91213867 506.25073364 308.27276367 506.37448364 307.61401367 506.50198364 C306.59307617 506.81135864 306.59307617 506.81135864 305.55151367 507.12698364 C305.22151367 507.78698364 304.89151367 508.44698364 304.55151367 509.12698364 C301.91151367 509.12698364 299.27151367 509.12698364 296.55151367 509.12698364 C296.22151367 509.78698364 295.89151367 510.44698364 295.55151367 511.12698364 C288.31658705 512.73098389 280.47005196 512.2685939 273.10302734 512.25396729 C271.88464015 512.25552728 270.66625296 512.25708727 269.41094494 512.25869453 C266.0551556 512.2619761 262.69942281 512.26081797 259.34363699 512.25770831 C255.71441046 512.2554357 252.0851887 512.25894306 248.45596313 512.26168823 C241.35658854 512.26612504 234.25722455 512.26517876 227.15784955 512.26227559 C221.38586163 512.26001335 215.61387667 512.2597126 209.84188843 512.26079941 C208.60766515 512.26102926 208.60766515 512.26102926 207.34850806 512.26126375 C205.67675471 512.26158349 204.00500137 512.2619077 202.33324802 512.26223634 C186.67268609 512.26508501 171.01213002 512.26181372 155.35156906 512.25643598 C141.92635235 512.25196849 128.50114429 512.2527446 115.07592773 512.25735474 C99.46978901 512.26271131 83.86365542 512.26481038 68.25751591 512.26174247 C66.59205691 512.26142394 64.92659791 512.26110957 63.26113892 512.26079941 C62.44179105 512.26064513 61.62244319 512.26049086 60.77826661 512.26033191 C55.01602536 512.25947001 49.25378738 512.26092259 43.49154663 512.26327896 C36.46529284 512.26608918 29.43905021 512.26531292 22.41279769 512.25999822 C18.83081177 512.2573777 15.24884444 512.2563281 11.66685867 512.25964737 C7.77789537 512.26319649 3.88896222 512.25894661 0 512.25396729 C-1.12355298 512.25619801 -2.24710596 512.25842873 -3.404706 512.26072705 C-21.35925817 512.2162118 -21.35925817 512.2162118 -24.44848633 509.12698364 C-27.03202851 508.96010917 -27.03202851 508.96010917 -29.44848633 509.12698364 C-29.77848633 508.46698364 -30.10848633 507.80698364 -30.44848633 507.12698364 C-32.7700523 506.71969137 -35.10536503 506.38259688 -37.44848633 506.12698364 C-37.44848633 505.46698364 -37.44848633 504.80698364 -37.44848633 504.12698364 C-39.09848633 504.12698364 -40.74848633 504.12698364 -42.44848633 504.12698364 C-42.44848633 503.79698364 -42.44848633 503.46698364 -42.44848633 503.12698364 C-44.75848633 502.79698364 -47.06848633 502.46698364 -49.44848633 502.12698364 C-49.44848633 501.13698364 -49.44848633 500.14698364 -49.44848633 499.12698364 C-50.10848633 499.12698364 -50.76848633 499.12698364 -51.44848633 499.12698364 C-51.44848633 498.46698364 -51.44848633 497.80698364 -51.44848633 497.12698364 C-53.09848633 497.12698364 -54.74848633 497.12698364 -56.44848633 497.12698364 C-56.44848633 496.46698364 -56.44848633 495.80698364 -56.44848633 495.12698364 C-57.21161133 495.20948364 -57.97473633 495.29198364 -58.76098633 495.37698364 C-59.64786133 495.29448364 -60.53473633 495.21198364 -61.44848633 495.12698364 C-62.49474041 493.82962858 -63.49549856 492.49431392 -64.44848633 491.12698364 C-66.54264437 490.33074542 -66.54264437 490.33074542 -68.44848633 490.12698364 C-68.44848633 489.46698364 -68.44848633 488.80698364 -68.44848633 488.12698364 C-69.43848633 488.12698364 -70.42848633 488.12698364 -71.44848633 488.12698364 C-74.13598633 485.75198364 -74.13598633 485.75198364 -76.44848633 483.12698364 C-76.44848633 482.46698364 -76.44848633 481.80698364 -76.44848633 481.12698364 C-77.10848633 481.12698364 -77.76848633 481.12698364 -78.44848633 481.12698364 C-78.44848633 480.46698364 -78.44848633 479.80698364 -78.44848633 479.12698364 C-79.43848633 479.12698364 -80.42848633 479.12698364 -81.44848633 479.12698364 C-81.44848633 478.13698364 -81.44848633 477.14698364 -81.44848633 476.12698364 C-82.10848633 476.12698364 -82.76848633 476.12698364 -83.44848633 476.12698364 C-83.44848633 475.46698364 -83.44848633 474.80698364 -83.44848633 474.12698364 C-84.43848633 474.12698364 -85.42848633 474.12698364 -86.44848633 474.12698364 C-86.44848633 473.46698364 -86.44848633 472.80698364 -86.44848633 472.12698364 C-87.10848633 472.12698364 -87.76848633 472.12698364 -88.44848633 472.12698364 C-90.08345996 470.3853813 -91.52634025 468.5288877 -93.01098633 466.65823364 C-93.48536133 466.15292114 -93.95973633 465.64760864 -94.44848633 465.12698364 C-95.10848633 465.12698364 -95.76848633 465.12698364 -96.44848633 465.12698364 C-96.44848633 463.47698364 -96.44848633 461.82698364 -96.44848633 460.12698364 C-97.10848633 460.12698364 -97.76848633 460.12698364 -98.44848633 460.12698364 C-100.44848633 458.12698364 -100.44848633 458.12698364 -100.76098633 456.25198364 C-101.75256807 453.18709463 -103.97490923 452.09316031 -106.44848633 450.12698364 C-106.44848633 449.13698364 -106.44848633 448.14698364 -106.44848633 447.12698364 C-107.10848633 446.79698364 -107.76848633 446.46698364 -108.44848633 446.12698364 C-108.44848633 444.47698364 -108.44848633 442.82698364 -108.44848633 441.12698364 C-109.10848633 441.12698364 -109.76848633 441.12698364 -110.44848633 441.12698364 C-110.77848633 439.14698364 -111.10848633 437.16698364 -111.44848633 435.12698364 C-112.10848633 435.12698364 -112.76848633 435.12698364 -113.44848633 435.12698364 C-113.44848633 433.47698364 -113.44848633 431.82698364 -113.44848633 430.12698364 C-114.10848633 430.12698364 -114.76848633 430.12698364 -115.44848633 430.12698364 C-115.77848633 427.15698364 -116.10848633 424.18698364 -116.44848633 421.12698364 C-117.10848633 421.12698364 -117.76848633 421.12698364 -118.44848633 421.12698364 C-119.42306334 413.80702 -119.58940071 406.63969151 -119.57546997 399.26052856 C-119.57780996 397.34741646 -119.57780996 397.34741646 -119.58019722 395.39565563 C-119.58435259 391.87606524 -119.58231706 388.35650214 -119.579211 384.83691168 C-119.57694162 381.03317936 -119.58044416 377.22945162 -119.58319092 373.42572021 C-119.58763114 365.98230301 -119.58667991 358.5388959 -119.58377828 351.0954783 C-119.58151739 345.0445677 -119.5812147 338.99365992 -119.58230209 332.94274902 C-119.58245533 332.08065423 -119.58260856 331.21855944 -119.58276644 330.33034056 C-119.58308617 328.57886195 -119.58341038 326.82738334 -119.58373903 325.07590473 C-119.5865887 308.66284046 -119.58331483 292.24978179 -119.57793866 275.83671844 C-119.57347109 261.76192123 -119.57424716 247.68713227 -119.57885742 233.61233521 C-119.58421222 217.25689845 -119.58631406 200.9014666 -119.58324516 184.54602909 C-119.58292662 182.80109215 -119.58261225 181.05615521 -119.58230209 179.31121826 C-119.58214782 178.45273716 -119.58199354 177.59425605 -119.58183459 176.70976037 C-119.58097216 170.66803729 -119.58242643 164.62631732 -119.58478165 158.58459473 C-119.58758989 151.21902666 -119.58681974 143.85346925 -119.5815009 136.4879024 C-119.57887774 132.7318747 -119.57783534 128.97586475 -119.58115005 125.21983719 C-119.58469222 121.14435567 -119.58045482 117.06891873 -119.57546997 112.99343872 C-119.57770069 111.8118175 -119.57993141 110.63019629 -119.58222973 109.41276836 C-119.56756752 103.2325173 -119.26432488 97.25467646 -118.44848633 91.12698364 C-117.78848633 91.12698364 -117.12848633 91.12698364 -116.44848633 91.12698364 C-116.11848633 88.81698364 -115.78848633 86.50698364 -115.44848633 84.12698364 C-114.78848633 84.12698364 -114.12848633 84.12698364 -113.44848633 84.12698364 C-113.44848633 81.81698364 -113.44848633 79.50698364 -113.44848633 77.12698364 C-112.45848633 77.12698364 -111.46848633 77.12698364 -110.44848633 77.12698364 C-110.44848633 75.80698364 -110.44848633 74.48698364 -110.44848633 73.12698364 C-109.78848633 73.12698364 -109.12848633 73.12698364 -108.44848633 73.12698364 C-108.53098633 72.03385864 -108.61348633 70.94073364 -108.69848633 69.81448364 C-108.61598633 68.59760864 -108.53348633 67.38073364 -108.44848633 66.12698364 C-106.51098633 64.43948364 -106.51098633 64.43948364 -104.44848633 63.12698364 C-103.65224811 61.0328256 -103.65224811 61.0328256 -103.44848633 59.12698364 C-102.78848633 59.12698364 -102.12848633 59.12698364 -101.44848633 59.12698364 C-101.44848633 57.47698364 -101.44848633 55.82698364 -101.44848633 54.12698364 C-100.45848633 54.12698364 -99.46848633 54.12698364 -98.44848633 54.12698364 C-98.44848633 53.46698364 -98.44848633 52.80698364 -98.44848633 52.12698364 C-97.78848633 52.12698364 -97.12848633 52.12698364 -96.44848633 52.12698364 C-96.44848633 50.47698364 -96.44848633 48.82698364 -96.44848633 47.12698364 C-95.78848633 47.12698364 -95.12848633 47.12698364 -94.44848633 47.12698364 C-91.96093876 44.83078589 -89.77196647 42.58732077 -87.82348633 39.81448364 C-87.36973633 39.25760864 -86.91598633 38.70073364 -86.44848633 38.12698364 C-85.45848633 38.12698364 -84.46848633 38.12698364 -83.44848633 38.12698364 C-83.44848633 37.46698364 -83.44848633 36.80698364 -83.44848633 36.12698364 C-82.78848633 36.12698364 -82.12848633 36.12698364 -81.44848633 36.12698364 C-81.44848633 35.46698364 -81.44848633 34.80698364 -81.44848633 34.12698364 C-80.07348633 32.50198364 -80.07348633 32.50198364 -78.44848633 31.12698364 C-77.78848633 31.12698364 -77.12848633 31.12698364 -76.44848633 31.12698364 C-76.44848633 30.46698364 -76.44848633 29.80698364 -76.44848633 29.12698364 C-74.13598633 26.50198364 -74.13598633 26.50198364 -71.44848633 24.12698364 C-70.45848633 24.12698364 -69.46848633 24.12698364 -68.44848633 24.12698364 C-68.44848633 23.46698364 -68.44848633 22.80698364 -68.44848633 22.12698364 C-67.12848633 22.12698364 -65.80848633 22.12698364 -64.44848633 22.12698364 C-64.44848633 21.46698364 -64.44848633 20.80698364 -64.44848633 20.12698364 C-63.26098633 18.50198364 -63.26098633 18.50198364 -61.44848633 17.12698364 C-58.76098633 16.93948364 -58.76098633 16.93948364 -56.44848633 17.12698364 C-56.44848633 16.46698364 -56.44848633 15.80698364 -56.44848633 15.12698364 C-54.13848633 14.13698364 -51.82848633 13.14698364 -49.44848633 12.12698364 C-49.44848633 11.46698364 -49.44848633 10.80698364 -49.44848633 10.12698364 C-46.97348633 9.63198364 -46.97348633 9.63198364 -44.44848633 9.12698364 C-44.44848633 8.79698364 -44.44848633 8.46698364 -44.44848633 8.12698364 C-41.80848633 8.12698364 -39.16848633 8.12698364 -36.44848633 8.12698364 C-36.44848633 7.46698364 -36.44848633 6.80698364 -36.44848633 6.12698364 C-35.80911133 6.00323364 -35.16973633 5.87948364 -34.51098633 5.75198364 C-33.83036133 5.54573364 -33.14973633 5.33948364 -32.44848633 5.12698364 C-32.11848633 4.46698364 -31.78848633 3.80698364 -31.44848633 3.12698364 C-28.80848633 3.12698364 -26.16848633 3.12698364 -23.44848633 3.12698364 C-23.11848633 2.46698364 -22.78848633 1.80698364 -22.44848633 1.12698364 C-15.2135597 -0.4770166 -7.36702462 -0.01462662 0 0 Z " fill="#FEFEFE" transform="translate(119.448486328125,-0.126983642578125)"/>
<path d="M0 0 C58.348125 -0.0309375 58.348125 -0.0309375 117.875 -0.0625 C130.15702637 -0.071604 142.43905273 -0.08070801 155.09326172 -0.09008789 C170.09204102 -0.09460449 170.09204102 -0.09460449 177.11380005 -0.09544373 C182.01753187 -0.0963753 186.92125285 -0.10012256 191.82498169 -0.10557556 C198.0833 -0.11244252 204.3416026 -0.11448966 210.59992433 -0.11307228 C212.89465557 -0.1133686 215.18938736 -0.11534683 217.48411536 -0.11921513 C220.58943607 -0.12420598 223.69469614 -0.12298365 226.80001831 -0.12025452 C228.13916888 -0.12462351 228.13916888 -0.12462351 229.505373 -0.12908077 C238.5821402 -0.10771393 247.18172509 0.86654639 256 3 C256 3.66 256 4.32 256 5 C256.59167969 4.96519531 257.18335938 4.93039063 257.79296875 4.89453125 C262.85656149 4.72106396 265.77666897 4.94981648 270 8 C271.66392045 8.67349161 273.33032028 9.3409159 275 10 C275.99 10.66 276.98 11.32 278 12 C278 12.66 278 13.32 278 14 C278.99 14 279.98 14 281 14 C281 14.66 281 15.32 281 16 C282.65 16.33 284.3 16.66 286 17 C286.33 17.99 286.66 18.98 287 20 C287.66 20 288.32 20 289 20 C289 20.66 289 21.32 289 22 C289.99 22.33 290.98 22.66 292 23 C293.09765625 24.671875 293.09765625 24.671875 294.0625 26.75 C294.39894531 27.47058594 294.73539062 28.19117188 295.08203125 28.93359375 C295.38496094 29.61550781 295.68789063 30.29742187 296 31 C296.4125 31.928125 296.825 32.85625 297.25 33.8125 C298 36 298 36 298 39 C298.99 39.33 299.98 39.66 301 40 C301.06058594 40.62648437 301.12117188 41.25296875 301.18359375 41.8984375 C301.30927734 43.12433594 301.30927734 43.12433594 301.4375 44.375 C301.51871094 45.18710938 301.59992188 45.99921875 301.68359375 46.8359375 C301.89090114 49.04272805 301.89090114 49.04272805 303 51 C303.09576742 52.74595441 303.1279553 54.49556231 303.12939453 56.24414062 C303.13254669 57.33867554 303.13569885 58.43321045 303.13894653 59.56091309 C303.13591019 61.34060486 303.13591019 61.34060486 303.1328125 63.15625 C303.13424759 64.97606384 303.13424759 64.97606384 303.13571167 66.8326416 C303.13639317 69.40161185 303.13454097 71.97058382 303.13037109 74.53955078 C303.12502246 78.48343759 303.13031714 82.42721051 303.13671875 86.37109375 C303.13605796 88.86197942 303.13477679 91.35286502 303.1328125 93.84375 C303.13483673 95.03021118 303.13686096 96.21667236 303.13894653 97.43908691 C303.13579437 98.53362183 303.13264221 99.62815674 303.12939453 100.75585938 C303.12820114 102.20575256 303.12820114 102.20575256 303.12698364 103.68493652 C303 106 303 106 302 108 C301.34 108 300.68 108 300 108 C300.08121094 108.70382813 300.16242188 109.40765625 300.24609375 110.1328125 C300.84885708 119.5556025 297.9245885 126.18973633 293 134 C292.34 134.33 291.68 134.66 291 135 C290.67 135.99 290.34 136.98 290 138 C289.34 138 288.68 138 288 138 C287.67 139.98 287.34 141.96 287 144 C285.02 144.33 283.04 144.66 281 145 C281 145.66 281 146.32 281 147 C280.01 147 279.02 147 278 147 C278 147.66 278 148.32 278 149 C276.68 149.33 275.36 149.66 274 150 C274 150.66 274 151.32 274 152 C268.29668391 154.4672293 263.18444458 156.34208036 257 157 C256.67 157.33 256.34 157.66 256 158 C241.52493529 161.80611374 226.85277084 161.3201382 212 161 C212 162.32 212 163.64 212 165 C212.59039062 165.10054687 213.18078125 165.20109375 213.7890625 165.3046875 C216.40364435 166.12694116 217.49197521 167.15357029 219.375 169.125 C219.97828125 169.75148438 220.5815625 170.37796875 221.203125 171.0234375 C223.37827381 173.4161012 225.44138869 175.88436201 227.4453125 178.421875 C228.98754868 180.13291813 228.98754868 180.13291813 231.3046875 181.296875 C235.45543784 183.91966797 238.32959915 187.58794217 241.5390625 191.26171875 C244.49368774 194.57241421 247.15474004 196.73228259 251 199 C253.61545833 201.71353802 256.04262536 204.54955198 258.5 207.40625 C260.89790668 209.89407818 263.03568635 211.28854619 266 213 C267.43753613 214.33133977 268.83512766 215.70723248 270.1875 217.125 C272.81265457 219.94417568 272.81265457 219.94417568 276 222 C276.4125 222.763125 276.825 223.52625 277.25 224.3125 C278.85539731 227.1737687 278.85539731 227.1737687 281.79296875 228.8203125 C285.14888333 231.10118989 287.4265121 233.49205451 290.0625 236.5625 C293.18398859 240.19683979 295.87277077 242.61435635 300 245 C301.43753613 246.33133977 302.83512766 247.70723248 304.1875 249.125 C306.81265457 251.94417568 306.81265457 251.94417568 310 254 C310.66666667 255.33333333 311.33333333 256.66666667 312 258 C312.66 258.33 313.32 258.66 314 259 C314 259.66 314 260.32 314 261 C314.56847656 261.06445312 315.13695312 261.12890625 315.72265625 261.1953125 C318.92677631 262.32747156 320.27223025 264.28568263 322.4375 266.875 C325.41362985 270.42565231 327.99204277 272.708827 332 275 C334.01953125 276.75390625 334.01953125 276.75390625 335.8125 278.5625 C336.41707031 279.16191406 337.02164062 279.76132812 337.64453125 280.37890625 C339 282 339 282 339 284 C339.86818359 284.13148438 339.86818359 284.13148438 340.75390625 284.265625 C343.6057966 285.19806915 344.87956602 286.58203787 346.9375 288.75 C347.62714844 289.46929687 348.31679688 290.18859375 349.02734375 290.9296875 C349.67832031 291.61289062 350.32929688 292.29609375 351 293 C351.99715856 293.96128954 352.99661469 294.9202117 354 295.875 C356 298 356 298 356 300 C356.66 300 357.32 300 358 300 C358.433125 300.598125 358.86625 301.19625 359.3125 301.8125 C360.86325705 304.10554385 360.86325705 304.10554385 363.2109375 305.29296875 C366.60251294 307.36876492 369.38895748 309.82156615 372.3125 312.5 C372.86228516 312.98597656 373.41207031 313.47195313 373.97851562 313.97265625 C375.38038357 315.25088118 376.69750963 316.62064815 378 318 C378 318.99 378 319.98 378 321 C343.35 321 308.7 321 273 321 C273 320.34 273 319.68 273 319 C271.68 318.67 270.36 318.34 269 318 C268.67 316.68 268.34 315.36 268 314 C267.34 314 266.68 314 266 314 C266 313.34 266 312.68 266 312 C264.68 311.67 263.36 311.34 262 311 C261.67 309.68 261.34 308.36 261 307 C260.01 307 259.02 307 258 307 C258 306.34 258 305.68 258 305 C257.34 305 256.68 305 256 305 C255.34 303.35 254.68 301.7 254 300 C253.01 300 252.02 300 251 300 C251 299.34 251 298.68 251 298 C250.34 298 249.68 298 249 298 C249 297.34 249 296.68 249 296 C248.01 296 247.02 296 246 296 C246 295.01 246 294.02 246 293 C245.34 293 244.68 293 244 293 C244 292.34 244 291.68 244 291 C243.01 291 242.02 291 241 291 C241 290.34 241 289.68 241 289 C240.34 289 239.68 289 239 289 C239 288.34 239 287.68 239 287 C238.4225 286.896875 237.845 286.79375 237.25 286.6875 C234.61872985 285.88350079 233.01311907 284.86932485 231 283 C231 282.01 231 281.02 231 280 C230.34 280 229.68 280 229 280 C229 279.01 229 278.02 229 277 C228.34 277 227.68 277 227 277 C227 276.34 227 275.68 227 275 C226.0925 274.938125 225.185 274.87625 224.25 274.8125 C220.22071238 273.80517809 219.15424887 272.47994048 217 269 C217 268.01 217 267.02 217 266 C215.35 265.34 213.7 264.68 212 264 C212 263.01 212 262.02 212 261 C211.34 261 210.68 261 210 261 C210 260.34 210 259.68 210 259 C209.0925 258.938125 208.185 258.87625 207.25 258.8125 C203.22071238 257.80517809 202.15424887 256.47994048 200 253 C200 252.01 200 251.02 200 250 C198.35 249.34 196.7 248.68 195 248 C195 247.01 195 246.02 195 245 C194.34 245 193.68 245 193 245 C193 244.34 193 243.68 193 243 C192.01 243 191.02 243 190 243 C190 242.34 190 241.68 190 241 C188.35 240.34 186.7 239.68 185 239 C185 238.01 185 237.02 185 236 C184.34 236 183.68 236 183 236 C183 235.34 183 234.68 183 234 C181.35 233.34 179.7 232.68 178 232 C178 231.01 178 230.02 178 229 C177.34 229 176.68 229 176 229 C176 228.34 176 227.68 176 227 C175.01 227 174.02 227 173 227 C173 226.34 173 225.68 173 225 C171.35 224.34 169.7 223.68 168 223 C168 222.01 168 221.02 168 220 C167.34 220 166.68 220 166 220 C166 219.34 166 218.68 166 218 C165.01 218 164.02 218 163 218 C163 217.34 163 216.68 163 216 C162.34 216 161.68 216 161 216 C161 215.01 161 214.02 161 213 C160.34 213 159.68 213 159 213 C159 212.34 159 211.68 159 211 C157.6078125 210.8453125 157.6078125 210.8453125 156.1875 210.6875 C152.97535795 209.99468505 151.88069983 209.6120831 150 207 C150 206.34 150 205.68 150 205 C148.68 204.34 147.36 203.68 146 203 C146 202.01 146 201.02 146 200 C145.34 200 144.68 200 144 200 C144 199.01 144 198.02 144 197 C143.01 197 142.02 197 141 197 C141 196.34 141 195.68 141 195 C140.34 195 139.68 195 139 195 C139 194.34 139 193.68 139 193 C137.35 192.34 135.7 191.68 134 191 C134 190.01 134 189.02 134 188 C133.34 188 132.68 188 132 188 C132 187.34 132 186.68 132 186 C131.01 186 130.02 186 129 186 C129 185.34 129 184.68 129 184 C128.34 184 127.68 184 127 184 C127 183.01 127 182.02 127 181 C126.01 181 125.02 181 124 181 C124 180.34 124 179.68 124 179 C123.34 179 122.68 179 122 179 C122 178.34 122 177.68 122 177 C120.35 176.34 118.7 175.68 117 175 C117 174.01 117 173.02 117 172 C116.34 172 115.68 172 115 172 C115 171.34 115 170.68 115 170 C114.01 170 113.02 170 112 170 C112 169.34 112 168.68 112 168 C111.34 168 110.68 168 110 168 C110 167.01 110 166.02 110 165 C109.01 165 108.02 165 107 165 C107 164.34 107 163.68 107 163 C106.34 163 105.68 163 105 163 C105 162.34 105 161.68 105 161 C103.35 160.34 101.7 159.68 100 159 C100 158.01 100 157.02 100 156 C99.34 156 98.68 156 98 156 C98 155.34 98 154.68 98 154 C97.01 154 96.02 154 95 154 C95 153.34 95 152.68 95 152 C94.34 152 93.68 152 93 152 C93 151.01 93 150.02 93 149 C92.01 149 91.02 149 90 149 C90 148.34 90 147.68 90 147 C89.34 147 88.68 147 88 147 C88 146.34 88 145.68 88 145 C86.35 144.34 84.7 143.68 83 143 C83 142.01 83 141.02 83 140 C82.01 140 81.02 140 80 140 C80 139.34 80 138.68 80 138 C79.34 138 78.68 138 78 138 C78 137.34 78 136.68 78 136 C76.68 136 75.36 136 74 136 C74 173.62 74 211.24 74 250 C49.58 250 25.16 250 0 250 C0 167.5 0 85 0 0 Z " fill="#EE220C" transform="translate(79,108)"/>
<path d="M0 0 C50.16 0 100.32 0 152 0 C152 5.61 152 11.22 152 17 C101.84 17 51.68 17 0 17 C0 11.39 0 5.78 0 0 Z " fill="#FEF5F4" transform="translate(155,180)"/>
<path d="M0 0 C82.83 0 165.66 0 251 0 C251 0.66 251 1.32 251 2 C251.82242188 2.10957031 252.64484375 2.21914062 253.4921875 2.33203125 C263.68982469 3.78042545 273.81043291 5.26373738 282 12 C284 14.8125 284 14.8125 285 17 C284.34 17 283.68 17 283 17 C283 16.34 283 15.68 283 15 C282.01 15 281.02 15 280 15 C280 14.34 280 13.68 280 13 C276.68769806 11.20583645 273.24441002 9.95022474 269.70703125 8.68359375 C268 8 268 8 267 7 C265.48530552 6.76807135 263.96245438 6.58784762 262.4375 6.4375 C261.61121094 6.35371094 260.78492188 6.26992187 259.93359375 6.18359375 C259.29550781 6.12300781 258.65742188 6.06242187 258 6 C258 5.34 258 4.68 258 4 C256.88625 4.020625 255.7725 4.04125 254.625 4.0625 C251 4 251 4 249 3 C242.30310295 1.97160876 235.56121258 1.84918211 228.80001831 1.84178162 C227.82600571 1.83685196 226.8519931 1.8319223 225.84846497 1.82684326 C222.60194055 1.81157012 219.35543551 1.80313435 216.10888672 1.79467773 C213.7347503 1.78495392 211.36061559 1.774808 208.98648262 1.76427555 C202.64509765 1.73730297 196.30370581 1.7160859 189.96229553 1.69608307 C184.00552942 1.67641517 178.0487895 1.65152725 172.09204102 1.6270752 C154.68638045 1.55865382 137.28068786 1.49858421 119.875 1.4375 C80.97625 1.293125 42.0775 1.14875 2 1 C2 83.5 2 166 2 251 C26.42 251 50.84 251 76 251 C76 213.38 76 175.76 76 137 C77.32 137 78.64 137 80 137 C80 137.66 80 138.32 80 139 C80.66 139 81.32 139 82 139 C81.67 139.66 81.34 140.32 81 141 C80.34 140.67 79.68 140.34 79 140 C79 176.96 79 213.92 79 252 C52.93 252 26.86 252 0 252 C0 168.84 0 85.68 0 0 Z " fill="#F6908B" transform="translate(77,107)"/>
<path d="M0 0 C58.595625 -0.061875 58.595625 -0.061875 118.375 -0.125 C130.7298584 -0.14320801 143.0847168 -0.16141602 155.81396484 -0.18017578 C170.84887695 -0.18920898 170.84887695 -0.18920898 177.87734985 -0.19088745 C182.80811344 -0.19275802 187.73883437 -0.20028172 192.66958618 -0.21115112 C198.94790799 -0.22480905 205.22616725 -0.22899355 211.50450253 -0.22614455 C213.81561738 -0.22674081 216.12673428 -0.23074213 218.43783641 -0.23843026 C221.54598973 -0.24829425 224.65389613 -0.24601097 227.76205444 -0.24050903 C228.67812281 -0.24633436 229.59419117 -0.25215969 230.53801918 -0.25816154 C236.77175035 -0.22824965 236.77175035 -0.22824965 239 2 C160.79 2 82.58 2 2 2 C2 83.18 2 164.36 2 248 C25.1 248 48.2 248 72 248 C72 211.04 72 174.08 72 136 C72.33 136 72.66 136 73 136 C73.33 173.62 73.66 211.24 74 250 C49.58 250 25.16 250 0 250 C0 167.5 0 85 0 0 Z " fill="#ED0A08" transform="translate(79,108)"/>
<path d="M0 0 C1.9375 0.75 1.9375 0.75 4 2 C4.8125 4.0625 4.8125 4.0625 5 6 C4 7 4 7 2.22151089 7.12304783 C1.44075223 7.12212604 0.65999357 7.12120424 -0.14442444 7.12025452 C-1.03769943 7.12162918 -1.93097443 7.12300385 -2.85131836 7.12442017 C-4.33269287 7.11902725 -4.33269287 7.11902725 -5.84399414 7.11352539 C-7.3950309 7.11374443 -7.3950309 7.11374443 -8.97740173 7.1139679 C-12.41334086 7.11326827 -15.84922653 7.10547358 -19.28515625 7.09765625 C-21.66027293 7.09579225 -24.03539 7.09436826 -26.4105072 7.09336853 C-32.67576144 7.08954197 -38.94099267 7.0797105 -45.20623779 7.06866455 C-51.5938689 7.0584534 -57.98150371 7.05387155 -64.36914062 7.04882812 C-76.91277026 7.03808836 -89.45638391 7.02120127 -102 7 C-102 6.34 -102 5.68 -102 5 C-102.66 4.67 -103.32 4.34 -104 4 C-69.35 4 -34.7 4 1 4 C0.505 2.02 0.505 2.02 0 0 Z " fill="#FAB2AD" transform="translate(456,425)"/>
<path d="M0 0 C82.83 0 165.66 0 251 0 C251 0.66 251 1.32 251 2 C251.82242188 2.10957031 252.64484375 2.21914062 253.4921875 2.33203125 C263.68982469 3.78042545 273.81043291 5.26373738 282 12 C284 14.8125 284 14.8125 285 17 C284.34 17 283.68 17 283 17 C283 16.34 283 15.68 283 15 C282.01 15 281.02 15 280 15 C280 14.34 280 13.68 280 13 C276.68769806 11.20583645 273.24441002 9.95022474 269.70703125 8.68359375 C268 8 268 8 267 7 C265.48530552 6.76807135 263.96245438 6.58784762 262.4375 6.4375 C261.61121094 6.35371094 260.78492188 6.26992187 259.93359375 6.18359375 C259.29550781 6.12300781 258.65742188 6.06242187 258 6 C258 5.34 258 4.68 258 4 C256.88625 4.020625 255.7725 4.04125 254.625 4.0625 C251 4 251 4 249 3 C242.27822289 1.96642514 235.51044338 1.84915031 228.72409058 1.84178162 C227.73957731 1.83684364 226.75506405 1.83190566 225.74071705 1.82681805 C222.46891059 1.81156063 219.19712357 1.80311458 215.92529297 1.79467773 C213.56916638 1.78508995 211.21304148 1.77507935 208.85691833 1.76467896 C202.47962556 1.73772139 196.10232546 1.71666246 189.72500753 1.69667697 C183.72976548 1.67698312 177.73454194 1.65285466 171.73931636 1.62875474 C159.8708197 1.58118872 148.00231151 1.53789506 136.13378906 1.49731445 C124.61001692 1.4579034 113.086255 1.41646389 101.5625 1.37231445 C100.85123529 1.36959018 100.13997058 1.36686591 99.4071524 1.36405908 C95.83866559 1.35037868 92.27017893 1.33665859 88.70169234 1.32291877 C59.13448322 1.20912681 29.56725098 1.1023512 0 1 C0 0.67 0 0.34 0 0 Z " fill="#F6B0AE" transform="translate(77,107)"/>
<path d="M0 0 C1.32 0 2.64 0 4 0 C4 0.66 4 1.32 4 2 C3.34 2 2.68 2 2 2 C2 38.96 2 75.92 2 114 C1.34 114 0.68 114 0 114 C0 76.38 0 38.76 0 0 Z " fill="#F56356" transform="translate(153,244)"/>
<path d="M0 0 C1.32 0 2.64 0 4 0 C4.66 1.65 5.32 3.3 6 5 C7.26089447 4.98525131 8.52178894 4.97050262 9.82089233 4.95530701 C21.68142884 4.81723718 33.54201453 4.68450025 45.40266991 4.5570364 C51.50090281 4.49132721 57.59910241 4.4237139 63.69726562 4.35180664 C69.57808884 4.28253127 75.45894689 4.21818225 81.33986282 4.15730476 C83.58784582 4.13315764 85.8358102 4.10721037 88.08375168 4.07946587 C91.22295976 4.04102334 94.36217201 4.00887917 97.50146484 3.97827148 C98.43869888 3.96532547 99.37593292 3.95237946 100.34156799 3.93904114 C101.19414688 3.93200165 102.04672577 3.92496216 102.92514038 3.91770935 C103.66810553 3.90941321 104.41107067 3.90111708 105.17654991 3.89256954 C107 4 107 4 109 5 C109 5.66 109 6.32 109 7 C74.35 7 39.7 7 4 7 C3.34 5.35 2.68 3.7 2 2 C1.34 2 0.68 2 0 2 C0 1.34 0 0.68 0 0 Z " fill="#ED0A00" transform="translate(348,422)"/>
<path d="M0 0 C1.485 0.99 1.485 0.99 3 2 C3 2.99 3 3.98 3 5 C3.99 5.33 4.98 5.66 6 6 C8.25246802 10.12952471 8.46385279 14.40445245 9 19 C9.33 19.33 9.66 19.66 10 20 C10.2108982 22.10019454 10.36877227 24.20582622 10.5 26.3125 C10.70303834 30.61166015 10.70303834 30.61166015 11.50927734 34.81518555 C12.14204895 37.63243583 12.12981037 40.26906074 12.1328125 43.15625 C12.13474609 44.93708984 12.13474609 44.93708984 12.13671875 46.75390625 C12.13285156 47.99011719 12.12898438 49.22632813 12.125 50.5 C12.12886719 51.73621094 12.13273437 52.97242188 12.13671875 54.24609375 C12.13542969 55.43332031 12.13414062 56.62054688 12.1328125 57.84375 C12.13168457 58.92849609 12.13055664 60.01324219 12.12939453 61.13085938 C12.01706592 63.62158748 11.6640267 65.61828966 11 68 C10.69858461 71.62535728 10.49265441 75.25118673 10.28125 78.8828125 C10 82 10 82 9 84 C8.8723696 85.60247055 8.77173805 87.20716348 8.6875 88.8125 C8.28040453 93.46406623 7.12611644 95.483119 4 99 C3.20309162 102.18762109 3.20309162 102.18762109 3 105 C2.01 105 1.02 105 0 105 C0.92690577 101.43497782 1.70547452 98.50658382 3.5625 95.3125 C5.70955813 90.36493127 5.74929485 85.34261313 6 80 C6.66 80 7.32 80 8 80 C8.02314716 72.60267133 8.04092723 65.20535045 8.05181217 57.80799294 C8.05703579 54.37328438 8.06412401 50.93860057 8.07543945 47.50390625 C8.08836035 43.55729465 8.09323252 39.61069316 8.09765625 35.6640625 C8.10281754 34.42757965 8.10797882 33.1910968 8.11329651 31.91714478 C8.11337204 30.77611298 8.11344757 29.63508118 8.11352539 28.45947266 C8.115746 27.451315 8.11796661 26.44315735 8.12025452 25.40444946 C8.16082548 22.98666939 8.16082548 22.98666939 7 21 C6.73044167 18.66810655 6.55492623 16.33678493 6.37890625 13.99609375 C6.25386719 13.33738281 6.12882812 12.67867187 6 12 C5.34 11.67 4.68 11.34 4 11 C2.9296875 9.00390625 2.9296875 9.00390625 1.875 6.5625 C1.52179688 5.75941406 1.16859375 4.95632812 0.8046875 4.12890625 C0 2 0 2 0 0 Z " fill="#F68C85" transform="translate(373,136)"/>
<path d="M0 0 C1.134375 0.020625 2.26875 0.04125 3.4375 0.0625 C3.4375 0.3925 3.4375 0.7225 3.4375 1.0625 C1.4575 1.0625 -0.5225 1.0625 -2.5625 1.0625 C-2.5625 1.7225 -2.5625 2.3825 -2.5625 3.0625 C-3.32175781 3.19527344 -4.08101563 3.32804687 -4.86328125 3.46484375 C-5.85714844 3.64144531 -6.85101563 3.81804687 -7.875 4 C-8.86113281 4.17402344 -9.84726562 4.34804688 -10.86328125 4.52734375 C-13.64439213 5.01996847 -13.64439213 5.01996847 -16.5625 6.0625 C-18.77339945 6.14608958 -20.98676078 6.16981764 -23.19921875 6.16015625 C-24.49794922 6.15693359 -25.79667969 6.15371094 -27.13476562 6.15039062 C-28.50651108 6.14203531 -29.87825587 6.13357037 -31.25 6.125 C-32.63346195 6.11998335 -34.01692563 6.11542073 -35.40039062 6.11132812 C-38.78780395 6.09952529 -42.17513033 6.08306019 -45.5625 6.0625 C-44.45968873 7.33450971 -43.35519231 8.60505853 -42.25 9.875 C-41.63511719 10.58269531 -41.02023437 11.29039062 -40.38671875 12.01953125 C-38.62973259 14.04494046 -38.62973259 14.04494046 -36.83203125 15.69921875 C-35.5625 17.0625 -35.5625 17.0625 -35.5625 19.0625 C-34.9025 19.0625 -34.2425 19.0625 -33.5625 19.0625 C-33.129375 19.660625 -32.69625 20.25875 -32.25 20.875 C-30.69506132 23.17423147 -30.69506132 23.17423147 -28.3125 24.375 C-23.35414808 27.41762504 -19.53332848 31.77813767 -15.9375 36.3125 C-13.56626476 39.0581408 -11.63906957 40.23120859 -8.5625 42.0625 C-4.152512 45.94488221 -0.61659728 50.05378046 2.4375 55.0625 C-2.66444166 53.07121099 -5.54451996 48.7340657 -9.02734375 44.69140625 C-11.36635164 42.03182482 -11.36635164 42.03182482 -14.00390625 40.62109375 C-18.12636867 38.10985328 -20.94851707 34.40997792 -24.1015625 30.80078125 C-26.32450988 28.30994022 -28.1713923 26.2966742 -31.0546875 24.5703125 C-34.59591139 22.44116543 -36.98282233 19.5266331 -39.6875 16.4375 C-43.46261599 11.8565679 -43.46261599 11.8565679 -48.5625 9.0625 C-48.5625 7.7425 -48.5625 6.4225 -48.5625 5.0625 C-47.46917358 5.04062622 -47.46917358 5.04062622 -46.35375977 5.01831055 C-30.85581051 4.67288095 -14.6182767 0.25646099 0 0 Z " fill="#F89E97" transform="translate(339.5625,263.9375)"/>
<path d="M0 0 C2 2 2 2 2.24723816 4.16320801 C2.24510063 5.50651184 2.24510063 5.50651184 2.24291992 6.87695312 C2.24599655 7.89140503 2.24907318 8.90585693 2.25224304 9.9510498 C2.24505753 11.05001587 2.23787201 12.14898193 2.23046875 13.28125 C2.22978142 14.96788757 2.22978142 14.96788757 2.2290802 16.68859863 C2.22605512 19.06926527 2.21816124 21.44992988 2.20581055 23.83056641 C2.18757599 27.48477146 2.18530067 31.13872299 2.18554688 34.79296875 C2.18063101 37.1015647 2.17480239 39.41015893 2.16796875 41.71875 C2.16685593 42.81771606 2.1657431 43.91668213 2.16459656 45.0489502 C2.15821671 46.0634021 2.15183685 47.077854 2.14526367 48.12304688 C2.14145187 49.01858276 2.13764008 49.91411865 2.13371277 50.83679199 C2 53 2 53 1 55 C0.34 55 -0.32 55 -1 55 C-1 58.3 -1 61.6 -1 65 C-1.66 64.67 -2.32 64.34 -3 64 C-3.0270043 62.54176788 -3.04639787 61.08339325 -3.0625 59.625 C-3.07410156 58.81289062 -3.08570313 58.00078125 -3.09765625 57.1640625 C-3 55 -3 55 -2 53 C-1.77670469 50.49413037 -1.6174385 48.01168573 -1.5 45.5 C-1.46011963 44.70424561 -1.42023926 43.90849121 -1.37915039 43.08862305 C-0.70602813 28.73524215 -0.38678665 14.36334098 0 0 Z " fill="#ED0C00" transform="translate(380,161)"/>
<path d="M0 0 C0.433125 0.474375 0.86625 0.94875 1.3125 1.4375 C3.02309613 3.23686957 3.02309613 3.23686957 6 4 C6 4.66 6 5.32 6 6 C6.59063232 6.26844727 7.18126465 6.53689453 7.78979492 6.81347656 C10.01390576 8.00746515 11.54352086 9.24693395 13.36328125 10.984375 C13.99596924 11.58338623 14.62865723 12.18239746 15.28051758 12.79956055 C15.95107178 13.44320557 16.62162598 14.08685059 17.3125 14.75 C18.73924329 16.10582667 20.16633551 17.46128624 21.59375 18.81640625 C22.32078125 19.50879395 23.0478125 20.20118164 23.796875 20.91455078 C25.94418559 22.94716681 28.10825631 24.95973588 30.28125 26.96484375 C30.95889404 27.59100586 31.63653809 28.21716797 32.3347168 28.86230469 C33.62590031 30.05387214 34.91895124 31.24342012 36.21411133 32.43066406 C39.13607943 35.13751548 41.65672548 37.76297655 44 41 C46.08334635 42.2516467 46.08334635 42.2516467 48 43 C48 43.66 48 44.32 48 45 C48.66 45 49.32 45 50 45 C50 45.66 50 46.32 50 47 C50.87398438 47.38285156 50.87398438 47.38285156 51.765625 47.7734375 C54.21388223 49.11741087 55.81743248 50.61810296 57.75 52.625 C58.36359375 53.25664062 58.9771875 53.88828125 59.609375 54.5390625 C60.29773438 55.26222656 60.29773438 55.26222656 61 56 C58 56 58 56 56.125 54.1875 C55.42375 53.465625 54.7225 52.74375 54 52 C53.113125 51.484375 52.22625 50.96875 51.3125 50.4375 C49 49 49 49 48 46 C47.34 46 46.68 46 46 46 C46 45.34 46 44.68 46 44 C45.4328125 43.773125 44.865625 43.54625 44.28125 43.3125 C40.46996973 41.11970861 38.03737842 37.63307594 35.21875 34.3125 C33.12103491 32.12614906 31.66443389 31.27806178 29 30 C27.359375 28.265625 27.359375 28.265625 25.75 26.25 C22.79085663 22.73443651 19.72605003 20.21661391 15.98828125 17.58203125 C13.08837351 15.27463904 10.85417365 12.51886262 8.54296875 9.63671875 C6.99412152 7.73505206 6.99412152 7.73505206 4 7 C4 6.34 4 5.68 4 5 C2.68 4.34 1.36 3.68 0 3 C0 2.01 0 1.02 0 0 Z " fill="#F9A7A0" transform="translate(389,362)"/>
<path d="M0 0 C0.99 0.495 0.99 0.495 2 1 C-1.48917387 5.62748592 -4.0496934 8.86057959 -10 10 C-12.875 10.125 -12.875 10.125 -15 10 C-15 10.99 -15 11.98 -15 13 C-16.98 13 -18.96 13 -21 13 C-21 13.66 -21 14.32 -21 15 C-21.60328125 15.04898437 -22.2065625 15.09796875 -22.828125 15.1484375 C-23.62734375 15.22320312 -24.4265625 15.29796875 -25.25 15.375 C-26.03890625 15.44460938 -26.8278125 15.51421875 -27.640625 15.5859375 C-29.98193855 15.85246527 -29.98193855 15.85246527 -31.69921875 17.01367188 C-34.92062521 18.39466531 -37.67574223 18.22396933 -41.171875 18.1953125 C-41.8542926 18.1924826 -42.53671021 18.18965271 -43.23980713 18.18673706 C-45.41005307 18.17558098 -47.57987971 18.15048557 -49.75 18.125 C-51.22525444 18.11496426 -52.70051537 18.10583944 -54.17578125 18.09765625 C-57.78398942 18.07565687 -61.39195375 18.04115883 -65 18 C-65 17.67 -65 17.34 -65 17 C-63.77482666 16.970271 -63.77482666 16.970271 -62.52490234 16.93994141 C-58.8079556 16.84441857 -55.09154981 16.73484876 -51.375 16.625 C-50.08980469 16.5940625 -48.80460937 16.563125 -47.48046875 16.53125 C-46.23652344 16.49257813 -44.99257813 16.45390625 -43.7109375 16.4140625 C-42.56931152 16.3826416 -41.42768555 16.3512207 -40.25146484 16.31884766 C-36.90092904 15.99028483 -34.15484937 15.14125998 -31 14 C-28.28938725 13.77336014 -25.72851708 13.9059132 -23 14 C-23 13.34 -23 12.68 -23 12 C-21.02 12 -19.04 12 -17 12 C-16.67 11.01 -16.34 10.02 -16 9 C-13.93359375 8.26953125 -13.93359375 8.26953125 -11.4375 7.8125 C-10.61121094 7.65394531 -9.78492188 7.49539063 -8.93359375 7.33203125 C-8.29550781 7.22246094 -7.65742188 7.11289062 -7 7 C-7 6.34 -7 5.68 -7 5 C-5.68 4.67 -4.36 4.34 -3 4 C-3 3.34 -3 2.68 -3 2 C-2.01 2 -1.02 2 0 2 C0 1.34 0 0.68 0 0 Z " fill="#FDE3E2" transform="translate(360,253)"/>
<path d="M0 0 C1.485 0.99 1.485 0.99 3 2 C3 2.99 3 3.98 3 5 C3.99 5.33 4.98 5.66 6 6 C8.25246802 10.12952471 8.46385279 14.40445245 9 19 C9.33 19.33 9.66 19.66 10 20 C10.2108982 22.10019454 10.36877227 24.20582622 10.5 26.3125 C10.70104602 30.60804415 10.70104602 30.60804415 11.51147461 34.80639648 C12.15014438 37.67418653 12.11151209 40.35943623 12.09765625 43.296875 C12.09443359 44.50214844 12.09121094 45.70742187 12.08789062 46.94921875 C12.07951172 48.20347656 12.07113281 49.45773438 12.0625 50.75 C12.05798828 52.01972656 12.05347656 53.28945312 12.04882812 54.59765625 C12.03704556 57.73181836 12.02059416 60.86588541 12 64 C11.67 64 11.34 64 11 64 C10.98018066 63.39752441 10.96036133 62.79504883 10.93994141 62.17431641 C10.5784504 51.65113347 10.16997442 41.15649186 9 30.6875 C8.9170166 29.9361377 8.8340332 29.18477539 8.74853516 28.41064453 C8.3220716 24.58281581 8.3220716 24.58281581 7 21 C6.73044167 18.66810655 6.55492623 16.33678493 6.37890625 13.99609375 C6.25386719 13.33738281 6.12882812 12.67867187 6 12 C5.34 11.67 4.68 11.34 4 11 C2.9296875 9.00390625 2.9296875 9.00390625 1.875 6.5625 C1.52179688 5.75941406 1.16859375 4.95632812 0.8046875 4.12890625 C0 2 0 2 0 0 Z " fill="#FBC2BD" transform="translate(373,136)"/>
<path d="M0 0 C8.81671264 -0.42892116 16.50340888 0.68080469 25 3 C25.91136719 3.22816406 26.82273437 3.45632812 27.76171875 3.69140625 C34.56412844 5.51441038 40.81405328 7.92601242 45 13.8125 C45.33 14.534375 45.66 15.25625 46 16 C45.34 16 44.68 16 44 16 C44 15.34 44 14.68 44 14 C43.01 14 42.02 14 41 14 C41 13.34 41 12.68 41 12 C37.68769806 10.20583645 34.24441002 8.95022474 30.70703125 7.68359375 C29 7 29 7 28 6 C26.48530552 5.76807135 24.96245438 5.58784762 23.4375 5.4375 C22.61121094 5.35371094 21.78492188 5.26992187 20.93359375 5.18359375 C20.29550781 5.12300781 19.65742188 5.06242187 19 5 C19 4.34 19 3.68 19 3 C17.88625 3.020625 16.7725 3.04125 15.625 3.0625 C12 3 12 3 10 2 C8.29636178 1.77377919 6.58671299 1.59111527 4.875 1.4375 C3.96492188 1.35371094 3.05484375 1.26992187 2.1171875 1.18359375 C1.41851562 1.12300781 0.71984375 1.06242187 0 1 C0 0.67 0 0.34 0 0 Z " fill="#F79790" transform="translate(316,108)"/>
<path d="M0 0 C2.52108651 2.52108651 2.23700032 4.07267905 2.25224304 7.51159668 C2.24505753 8.26058228 2.23787201 9.00956787 2.23046875 9.78125 C2.23001053 10.55053833 2.22955231 11.31982666 2.2290802 12.11242676 C2.22605753 13.73984315 2.21817074 15.36725664 2.20581055 16.99462891 C2.18757299 19.49001277 2.18530073 21.98502525 2.18554688 24.48046875 C2.18063093 26.05989905 2.17480228 27.63932683 2.16796875 29.21875 C2.16685593 29.9677356 2.1657431 30.71672119 2.16459656 31.48840332 C2.11607161 36.76785679 2.11607161 36.76785679 1 39 C0.77049681 41.204364 0.58924067 43.41392173 0.4375 45.625 C0.35371094 46.81351563 0.26992188 48.00203125 0.18359375 49.2265625 C0.09271484 50.59941406 0.09271484 50.59941406 0 52 C-1.485 52.495 -1.485 52.495 -3 53 C-2.8453125 52.484375 -2.690625 51.96875 -2.53125 51.4375 C-1.84589491 48.29292958 -1.69053553 45.21188467 -1.5 42 C-1.10646299 35.36609039 -1.10646299 35.36609039 -0.48852539 33.24121094 C0.20000732 30.08242519 0.11089738 27.05896191 0.09765625 23.828125 C0.0962413 23.1457074 0.09482635 22.46328979 0.09336853 21.76019287 C0.08779084 19.59008316 0.07524254 17.4200783 0.0625 15.25 C0.05748211 13.77474108 0.05291971 12.29948053 0.04882812 10.82421875 C0.03782875 7.21611202 0.02057953 3.60806625 0 0 Z " fill="#FEEBE8" transform="translate(384,169)"/>
<path d="M0 0 C1.32 0.33 2.64 0.66 4 1 C4 1.99 4 2.98 4 4 C4.66 4 5.32 4 6 4 C6 4.66 6 5.32 6 6 C6.99 6 7.98 6 9 6 C9 6.66 9 7.32 9 8 C9.66 8 10.32 8 11 8 C11 8.99 11 9.98 11 11 C11.99 11 12.98 11 14 11 C14 11.66 14 12.32 14 13 C14.66 13 15.32 13 16 13 C16 13.66 16 14.32 16 15 C16.99 15 17.98 15 19 15 C19.33 16.32 19.66 17.64 20 19 C19.01 19 18.02 19 17 19 C17 18.34 17 17.68 17 17 C16.01 17 15.02 17 14 17 C14 16.34 14 15.68 14 15 C13.34 15 12.68 15 12 15 C12 14.01 12 13.02 12 12 C11.01 12 10.02 12 9 12 C9 11.34 9 10.68 9 10 C8.34 10 7.68 10 7 10 C7 9.34 7 8.68 7 8 C4.525 7.01 4.525 7.01 2 6 C2 5.01 2 4.02 2 3 C1.34 3 0.68 3 0 3 C0 2.01 0 1.02 0 0 Z " fill="#EE1706" transform="translate(160,245)"/>
<path d="M0 0 C0.33 0.66 0.66 1.32 1 2 C1.99 2 2.98 2 4 2 C4 2.66 4 3.32 4 4 C4.66 4 5.32 4 6 4 C6 4.66 6 5.32 6 6 C6.99 6 7.98 6 9 6 C9 6.66 9 7.32 9 8 C9.66 8 10.32 8 11 8 C11.33 10.31 11.66 12.62 12 15 C12.66 15 13.32 15 14 15 C13.67 15.66 13.34 16.32 13 17 C11.2925002 15.71937515 9.62626404 14.38232443 8 13 C8 12.34 8 11.68 8 11 C6.68 10.34 5.36 9.68 4 9 C4 8.01 4 7.02 4 6 C3.34 6 2.68 6 2 6 C2 5.01 2 4.02 2 3 C1.34 3 0.68 3 0 3 C0 2.01 0 1.02 0 0 Z " fill="#EE1507" transform="translate(221,302)"/>
<path d="M0 0 C4.29 0 8.58 0 13 0 C6.18477087 4.54348609 -3.05674712 3.11622301 -10.9375 3.0625 C-12.19369141 3.05798828 -13.44988281 3.05347656 -14.74414062 3.04882812 C-17.82947663 3.03709681 -20.91471316 3.020681 -24 3 C-24 3.99 -24 4.98 -24 6 C-24.66 6 -25.32 6 -26 6 C-25.67 4.68 -25.34 3.36 -25 2 C-16.75 2 -8.5 2 0 2 C0 1.34 0 0.68 0 0 Z " fill="#F1412F" transform="translate(315,266)"/>
<path d="M0 0 C3.465 1.98 3.465 1.98 7 4 C7 4.66 7 5.32 7 6 C7.66 6 8.32 6 9 6 C9 6.66 9 7.32 9 8 C9.58265625 8.25523437 10.1653125 8.51046875 10.765625 8.7734375 C13.21388223 10.11741087 14.81743248 11.61810296 16.75 13.625 C17.36359375 14.25664062 17.9771875 14.88828125 18.609375 15.5390625 C19.06828125 16.02117187 19.5271875 16.50328125 20 17 C17 17 17 17 15.125 15.1875 C14.42375 14.465625 13.7225 13.74375 13 13 C12.113125 12.484375 11.22625 11.96875 10.3125 11.4375 C8 10 8 10 7 7 C6.34 7 5.68 7 5 7 C5 6.34 5 5.68 5 5 C4.360625 4.731875 3.72125 4.46375 3.0625 4.1875 C1 3 1 3 0 0 Z " fill="#F89C94" transform="translate(430,401)"/>
<path d="M0 0 C0.721875 0.763125 1.44375 1.52625 2.1875 2.3125 C4.7724822 4.99087187 4.7724822 4.99087187 7.3828125 6.390625 C10.22279954 8.13700509 12.34073081 10.0747935 14.6875 12.4375 C15.45449219 13.19933594 16.22148437 13.96117187 17.01171875 14.74609375 C18.81127115 16.78605787 19.94129628 18.51459395 21 21 C15.89805834 19.00871099 13.01798004 14.6715657 9.53515625 10.62890625 C7.13630291 8.14134339 4.99845111 6.65904148 2 5 C1.34 4.34 0.68 3.68 0 3 C0 2.01 0 1.02 0 0 Z " fill="#F79088" transform="translate(355,330)"/>
<path d="M0 0 C1.32 0 2.64 0 4 0 C4.66 1.65 5.32 3.3 6 5 C6.66 5 7.32 5 8 5 C8 5.66 8 6.32 8 7 C8.99 7 9.98 7 11 7 C11 7.66 11 8.32 11 9 C11.66 9.33 12.32 9.66 13 10 C11.68 10.33 10.36 10.66 9 11 C9 10.34 9 9.68 9 9 C6.525 8.01 6.525 8.01 4 7 C4 6.01 4 5.02 4 4 C3.34 4 2.68 4 2 4 C2 3.34 2 2.68 2 2 C1.34 2 0.68 2 0 2 C0 1.34 0 0.68 0 0 Z " fill="#EE1605" transform="translate(253,333)"/>
<path d="M0 0 C0.66 0.33 1.32 0.66 2 1 C-1.90780546 7.01835018 -5.68741641 9.02320395 -12.609375 10.6875 C-15 11 -15 11 -17 10 C-10.375 7 -10.375 7 -7 7 C-7 6.34 -7 5.68 -7 5 C-5.68 4.67 -4.36 4.34 -3 4 C-3 3.34 -3 2.68 -3 2 C-2.01 2 -1.02 2 0 2 C0 1.34 0 0.68 0 0 Z " fill="#F9ACA7" transform="translate(360,253)"/>
<path d="M0 0 C0.33 0 0.66 0 1 0 C1.41712615 6.15261076 1.12327451 8.25198693 -3 13 C-3.79690838 16.18762109 -3.79690838 16.18762109 -4 19 C-4.99 19 -5.98 19 -7 19 C-4.84615385 11 -4.84615385 11 -3 8 C-2.34 7.67 -1.68 7.34 -1 7 C-0.59270772 4.67843403 -0.25561323 2.3431213 0 0 Z " fill="#FAB9B5" transform="translate(380,222)"/>
<path d="M0 0 C0.99 0 1.98 0 3 0 C3 0.66 3 1.32 3 2 C4.32 1.67 5.64 1.34 7 1 C7 1.66 7 2.32 7 3 C7.66 3 8.32 3 9 3 C8.67 4.32 8.34 5.64 8 7 C8.66 7 9.32 7 10 7 C10.33 7.99 10.66 8.98 11 10 C9.68 9.34 8.36 8.68 7 8 C7 7.01 7 6.02 7 5 C6.34 5 5.68 5 5 5 C5 4.34 5 3.68 5 3 C4.360625 2.87625 3.72125 2.7525 3.0625 2.625 C2.381875 2.41875 1.70125 2.2125 1 2 C0.67 1.34 0.34 0.68 0 0 Z " fill="#F14231" transform="translate(340,417)"/>
<path d="M0 0 C0.66 0 1.32 0 2 0 C2 0.66 2 1.32 2 2 C2.99 2 3.98 2 5 2 C5 2.66 5 3.32 5 4 C5.66 4 6.32 4 7 4 C7 4.99 7 5.98 7 7 C7.99 7 8.98 7 10 7 C10 7.66 10 8.32 10 9 C10.66 9 11.32 9 12 9 C11.67 9.66 11.34 10.32 11 11 C8.96166576 9.7260411 6.96147874 8.38938077 5 7 C5 6.34 5 5.68 5 5 C3.68 4.67 2.36 4.34 1 4 C0.67 2.68 0.34 1.36 0 0 Z " fill="#F7A59F" transform="translate(318,397)"/>
<path d="M0 0 C0.33 0.66 0.66 1.32 1 2 C1.99 2 2.98 2 4 2 C4 2.66 4 3.32 4 4 C4.66 4 5.32 4 6 4 C6 4.99 6 5.98 6 7 C6.99 7 7.98 7 9 7 C9 7.99 9 8.98 9 10 C8.34 10 7.68 10 7 10 C7 9.34 7 8.68 7 8 C6.34 8 5.68 8 5 8 C5 7.34 5 6.68 5 6 C4.01 6 3.02 6 2 6 C2 5.34 2 4.68 2 4 C1.34 4 0.68 4 0 4 C0 2.68 0 1.36 0 0 Z " fill="#EE1000" transform="translate(294,370)"/>
<path d="M0 0 C0.33 0 0.66 0 1 0 C1.26299506 5.12840368 0.66067137 10.13074753 -1 15 C-1.99 15.495 -1.99 15.495 -3 16 C-2.67 11.38 -2.34 6.76 -2 2 C-1.34 2 -0.68 2 0 2 C0 1.34 0 0.68 0 0 Z " fill="#F46B5F" transform="translate(381,214)"/>
<path d="M0 0 C0.66 0 1.32 0 2 0 C2 0.66 2 1.32 2 2 C2.99 2 3.98 2 5 2 C5 2.99 5 3.98 5 5 C5.66 5 6.32 5 7 5 C7 5.66 7 6.32 7 7 C7.99 7 8.98 7 10 7 C10 7.99 10 8.98 10 10 C9.34 10 8.68 10 8 10 C8 9.34 8 8.68 8 8 C7.34 8 6.68 8 6 8 C6 7.34 6 6.68 6 6 C5.01 6 4.02 6 3 6 C3 5.34 3 4.68 3 4 C2.34 4 1.68 4 1 4 C0.67 2.68 0.34 1.36 0 0 Z " fill="#EE0F00" transform="translate(276,354)"/>
<path d="M0 0 C0.99 0 1.98 0 3 0 C3 0.66 3 1.32 3 2 C3.66 2 4.32 2 5 2 C5 2.66 5 3.32 5 4 C5.66 4 6.32 4 7 4 C7 4.99 7 5.98 7 7 C7.66 7.33 8.32 7.66 9 8 C8.01 8 7.02 8 6 8 C6 7.34 6 6.68 6 6 C5.01 6 4.02 6 3 6 C3 5.34 3 4.68 3 4 C2.34 4 1.68 4 1 4 C0.67 2.68 0.34 1.36 0 0 Z " fill="#EE1302" transform="translate(232,313)"/>
<path d="M0 0 C0.99 0 1.98 0 3 0 C3 0.66 3 1.32 3 2 C4.32 2.33 5.64 2.66 7 3 C7.33 4.32 7.66 5.64 8 7 C8.66 7 9.32 7 10 7 C9.67 7.66 9.34 8.32 9 9 C7.2925002 7.71937515 5.62626404 6.38232443 4 5 C4 4.34 4 3.68 4 3 C2.68 2.34 1.36 1.68 0 1 C0 0.67 0 0.34 0 0 Z " fill="#F57E74" transform="translate(225,310)"/>
<path d="M0 0 C2.67733998 2.67031284 3.00280229 4.03721441 3.29296875 7.890625 C3.27314945 9.34404009 3.23754845 10.79731167 3.1875 12.25 C3.16719727 13.36761719 3.16719727 13.36761719 3.14648438 14.5078125 C3.11127204 16.33885416 3.05746851 18.16952169 3 20 C2.67 20 2.34 20 2 20 C1.93941406 19.14277344 1.87882812 18.28554687 1.81640625 17.40234375 C1.38856464 11.56395127 0.940837 5.77942728 0 0 Z " fill="#F8ADA9" transform="translate(380,152)"/>
<path d="M0 0 C0.99 0 1.98 0 3 0 C3 0.66 3 1.32 3 2 C3.66 2 4.32 2 5 2 C5 2.99 5 3.98 5 5 C7.475 5.99 7.475 5.99 10 7 C9.67 7.66 9.34 8.32 9 9 C7.67870176 8.265611 6.36816829 7.51183106 5.0625 6.75 C4.33160156 6.33234375 3.60070312 5.9146875 2.84765625 5.484375 C0.68142682 3.74406383 0.36405249 2.70438996 0 0 Z " fill="#F79D96" transform="translate(269,351)"/>
<path d="M0 0 C0.99 0 1.98 0 3 0 C3 0.66 3 1.32 3 2 C3.66 2 4.32 2 5 2 C5 2.99 5 3.98 5 5 C7.475 5.99 7.475 5.99 10 7 C9.67 7.66 9.34 8.32 9 9 C7.67870176 8.265611 6.36816829 7.51183106 5.0625 6.75 C4.33160156 6.33234375 3.60070312 5.9146875 2.84765625 5.484375 C0.68142682 3.74406383 0.36405249 2.70438996 0 0 Z " fill="#F79993" transform="translate(252,335)"/>
<path d="M0 0 C0.99 0 1.98 0 3 0 C3 0.66 3 1.32 3 2 C3.66 2 4.32 2 5 2 C5 2.99 5 3.98 5 5 C7.475 5.99 7.475 5.99 10 7 C9.67 7.66 9.34 8.32 9 9 C7.67870176 8.265611 6.36816829 7.51183106 5.0625 6.75 C4.33160156 6.33234375 3.60070312 5.9146875 2.84765625 5.484375 C0.68142682 3.74406383 0.36405249 2.70438996 0 0 Z " fill="#F9A7A1" transform="translate(208,294)"/>
<path d="M0 0 C0.99 0 1.98 0 3 0 C3 0.66 3 1.32 3 2 C3.66 2 4.32 2 5 2 C5 2.99 5 3.98 5 5 C7.475 5.99 7.475 5.99 10 7 C9.67 7.66 9.34 8.32 9 9 C7.67870176 8.265611 6.36816829 7.51183106 5.0625 6.75 C4.33160156 6.33234375 3.60070312 5.9146875 2.84765625 5.484375 C0.68142682 3.74406383 0.36405249 2.70438996 0 0 Z " fill="#F8A39D" transform="translate(191,278)"/>
<path d="M0 0 C0.99 0 1.98 0 3 0 C3 0.66 3 1.32 3 2 C3.66 2 4.32 2 5 2 C5 2.99 5 3.98 5 5 C7.475 5.99 7.475 5.99 10 7 C9.67 7.66 9.34 8.32 9 9 C7.67870176 8.265611 6.36816829 7.51183106 5.0625 6.75 C4.33160156 6.33234375 3.60070312 5.9146875 2.84765625 5.484375 C0.68142682 3.74406383 0.36405249 2.70438996 0 0 Z " fill="#F8A09A" transform="translate(174,262)"/>
<path d="M0 0 C0.33 0 0.66 0 1 0 C1 5.61 1 11.22 1 17 C0.01 17.33 -0.98 17.66 -2 18 C-1.84660156 17.48953125 -1.69320313 16.9790625 -1.53515625 16.453125 C-0.83094597 13.2250662 -0.65111796 10.04581999 -0.4375 6.75 C-0.35371094 5.48671875 -0.26992188 4.2234375 -0.18359375 2.921875 C-0.12300781 1.95765625 -0.06242187 0.9934375 0 0 Z " fill="#FCE0DE" transform="translate(383,204)"/>
<path d="M0 0 C4.2742558 1.5830577 6.26531794 4.50568404 9 8 C6.03 7.505 6.03 7.505 3 7 C2.87625 6.401875 2.7525 5.80375 2.625 5.1875 C2.04524015 2.73768652 2.04524015 2.73768652 0 0 Z " fill="#F25548" transform="translate(448,419)"/>
<path d="M0 0 C0.99 0 1.98 0 3 0 C3 0.66 3 1.32 3 2 C5.97 2.495 5.97 2.495 9 3 C8.34 4.32 7.68 5.64 7 7 C7 6.34 7 5.68 7 5 C6.34 5 5.68 5 5 5 C5 4.34 5 3.68 5 3 C4.360625 2.87625 3.72125 2.7525 3.0625 2.625 C2.381875 2.41875 1.70125 2.2125 1 2 C0.67 1.34 0.34 0.68 0 0 Z " fill="#F13F30" transform="translate(313,392)"/>
<path d="M0 0 C1.32 0 2.64 0 4 0 C4 0.66 4 1.32 4 2 C4.66 2 5.32 2 6 2 C6 2.99 6 3.98 6 5 C6.66 5.33 7.32 5.66 8 6 C7.01 6 6.02 6 5 6 C5 5.34 5 4.68 5 4 C4.01 4 3.02 4 2 4 C2 3.34 2 2.68 2 2 C1.34 2 0.68 2 0 2 C0 1.34 0 0.68 0 0 Z " fill="#EE1100" transform="translate(311,388)"/>
<path d="M0 0 C1.32 0 2.64 0 4 0 C4 0.66 4 1.32 4 2 C4.66 2 5.32 2 6 2 C6 3.32 6 4.64 6 6 C5.34 6 4.68 6 4 6 C4 5.34 4 4.68 4 4 C3.34 4 2.68 4 2 4 C2 3.34 2 2.68 2 2 C1.34 2 0.68 2 0 2 C0 1.34 0 0.68 0 0 Z " fill="#EE1101" transform="translate(304,381)"/>
<path d="M0 0 C4.8 2.46153846 4.8 2.46153846 5.8125 5.1875 C5.874375 5.785625 5.93625 6.38375 6 7 C5.34 7 4.68 7 4 7 C4 6.34 4 5.68 4 5 C3.01 5 2.02 5 1 5 C1 4.34 1 3.68 1 3 C0.34 3 -0.32 3 -1 3 C-0.67 2.01 -0.34 1.02 0 0 Z " fill="#ED1103" transform="translate(388,364)"/>
<path d="M0 0 C1.32 0 2.64 0 4 0 C4 0.66 4 1.32 4 2 C4.66 2 5.32 2 6 2 C6.33 3.32 6.66 4.64 7 6 C6.34 6 5.68 6 5 6 C5 5.34 5 4.68 5 4 C4.01 4 3.02 4 2 4 C2 3.34 2 2.68 2 2 C1.34 2 0.68 2 0 2 C0 1.34 0 0.68 0 0 Z " fill="#EE1201" transform="translate(328,404)"/>
<path d="M0 0 C0.99 0 1.98 0 3 0 C3 0.66 3 1.32 3 2 C3.66 2 4.32 2 5 2 C5 2.99 5 3.98 5 5 C5.66 5 6.32 5 7 5 C6.67 5.66 6.34 6.32 6 7 C1.2 4.53846154 1.2 4.53846154 0.1875 1.8125 C0.125625 1.214375 0.06375 0.61625 0 0 Z " fill="#F79C96" transform="translate(235,319)"/>
<path d="M0 0 C3.24271506 0.5590888 4.93057424 1.4132178 7 4 C7 4.66 7 5.32 7 6 C6.34 6 5.68 6 5 6 C5 5.34 5 4.68 5 4 C4.01 4 3.02 4 2 4 C2 3.34 2 2.68 2 2 C1.34 2 0.68 2 0 2 C0 1.34 0 0.68 0 0 Z " fill="#ED1105" transform="translate(304,287)"/>
<path d="M0 0 C1.32 0.33 2.64 0.66 4 1 C4 1.99 4 2.98 4 4 C4.66 4 5.32 4 6 4 C6.33 4.99 6.66 5.98 7 7 C6.34 7 5.68 7 5 7 C5 6.34 5 5.68 5 5 C4.01 5 3.02 5 2 5 C2 4.34 2 3.68 2 3 C1.34 3 0.68 3 0 3 C0 2.01 0 1.02 0 0 Z " fill="#EE0D00" transform="translate(338,412)"/>
<path d="M0 0 C1.32 0 2.64 0 4 0 C4 0.99 4 1.98 4 3 C4.66 3 5.32 3 6 3 C6 3.99 6 4.98 6 6 C5.34 6 4.68 6 4 6 C4 5.34 4 4.68 4 4 C3.34 4 2.68 4 2 4 C2 3.34 2 2.68 2 2 C1.34 2 0.68 2 0 2 C0 1.34 0 0.68 0 0 Z " fill="#EE1103" transform="translate(321,397)"/>
<path d="M0 0 C3.36720387 1.39332574 4.9859524 2.9789286 7 6 C4 6 4 6 2 5 C2 4.01 2 3.02 2 2 C1.34 2 0.68 2 0 2 C0 1.34 0 0.68 0 0 Z " fill="#ED0F01" transform="translate(368,346)"/>
<path d="M0 0 C0.66 0 1.32 0 2 0 C2 0.66 2 1.32 2 2 C2.99 2 3.98 2 5 2 C5 2.99 5 3.98 5 5 C5.66 5 6.32 5 7 5 C6.67 5.66 6.34 6.32 6 7 C1.2 4.53846154 1.2 4.53846154 0.1875 1.8125 C0.125625 1.214375 0.06375 0.61625 0 0 Z " fill="#F8A29C" transform="translate(218,303)"/>
<path d="M0 0 C0.33 0.99 0.66 1.98 1 3 C-0.65 4.32 -2.3 5.64 -4 7 C-4.33 6.34 -4.66 5.68 -5 5 C-4.34 5 -3.68 5 -3 5 C-2.87625 4.360625 -2.7525 3.72125 -2.625 3.0625 C-2.41875 2.381875 -2.2125 1.70125 -2 1 C-1.34 0.67 -0.68 0.34 0 0 Z " fill="#F78F87" transform="translate(372,241)"/>
<path d="M0 0 C0.66 0.66 1.32 1.32 2 2 C1.34 2 0.68 2 0 2 C0 1.34 0 0.68 0 0 Z " fill="#FFFFFF" transform="translate(479,474)"/>
<path d="M0 0 C0.33 0.66 0.66 1.32 1 2 C0.34 1.67 -0.32 1.34 -1 1 C-0.67 0.67 -0.34 0.34 0 0 Z " fill="#FFFFFF" transform="translate(32,474)"/>
<path d="M0 0 C0.99 0.495 0.99 0.495 2 1 C1.01 1.495 1.01 1.495 0 2 C0 1.34 0 0.68 0 0 Z " fill="#FFFFFF" transform="translate(479,36)"/>
<path d="M0 0 C0.66 0 1.32 0 2 0 C1.67 0.66 1.34 1.32 1 2 C0.67 1.34 0.34 0.68 0 0 Z " fill="#FFFFFF" transform="translate(31,36)"/>
<path d="M0 0 C2 1 2 1 2 1 Z " fill="#FFFFFF" transform="translate(75,504)"/>
<path d="M0 0 C2 1 2 1 2 1 Z " fill="#FFFFFF" transform="translate(457,493)"/>
<path d="M0 0 C2 1 2 1 2 1 Z " fill="#FFFFFF" transform="translate(53,493)"/>
<path d="" fill="#FFFFFF" transform="translate(0,0)"/>
<path d="" fill="#FFFFFF" transform="translate(0,0)"/>
<path d="M0 0 C2 1 2 1 2 1 Z " fill="#FFFFFF" transform="translate(474,479)"/>
<path d="M0 0 C2 1 2 1 2 1 Z " fill="#FFFFFF" transform="translate(36,479)"/>
<path d="" fill="#FFFFFF" transform="translate(0,0)"/>
<path d="" fill="#FFFFFF" transform="translate(0,0)"/>
<path d="M0 0 C2 1 2 1 2 1 Z " fill="#FFFFFF" transform="translate(496,454)"/>
<path d="M0 0 C2 1 2 1 2 1 Z " fill="#FFFFFF" transform="translate(14,454)"/>
<path d="M0 0 C2 1 2 1 2 1 Z " fill="#FFFFFF" transform="translate(496,57)"/>
<path d="M0 0 C2 1 2 1 2 1 Z " fill="#FFFFFF" transform="translate(14,57)"/>
<path d="" fill="#FFFFFF" transform="translate(0,0)"/>
<path d="M0 0 C2 1 2 1 2 1 Z " fill="#FFFFFF" transform="translate(474,32)"/>
<path d="M0 0 C2 1 2 1 2 1 Z " fill="#FFFFFF" transform="translate(36,32)"/>
<path d="" fill="#FFFFFF" transform="translate(0,0)"/>
<path d="" fill="#FFFFFF" transform="translate(0,0)"/>
<path d="M0 0 C2 1 2 1 2 1 Z " fill="#FFFFFF" transform="translate(457,18)"/>
<path d="M0 0 C2 1 2 1 2 1 Z " fill="#FFFFFF" transform="translate(53,18)"/>
<path d="M0 0 C2 1 2 1 2 1 Z " fill="#FFFFFF" transform="translate(435,7)"/>
<path d="" fill="#FFFFFF" transform="translate(0,0)"/>
<path d="" fill="#FFFFFF" transform="translate(0,0)"/>
<path d="" fill="#FFFFFF" transform="translate(0,0)"/>
<path d="" fill="#FFFFFF" transform="translate(0,0)"/>
<path d="" fill="#FFFFFF" transform="translate(0,0)"/>
<path d="" fill="#FFFFFF" transform="translate(0,0)"/>
<path d="" fill="#FFFFFF" transform="translate(0,0)"/>
<path d="" fill="#FFFFFF" transform="translate(0,0)"/>
<path d="" fill="#FFFFFF" transform="translate(0,0)"/>
<path d="" fill="#FFFFFF" transform="translate(0,0)"/>
<path d="" fill="#FFFFFF" transform="translate(0,0)"/>
<path d="" fill="#FFFFFF" transform="translate(0,0)"/>
<path d="" fill="#FFFFFF" transform="translate(0,0)"/>
<path d="" fill="#FFFFFF" transform="translate(0,0)"/>
<path d="" fill="#FFFFFF" transform="translate(0,0)"/>
<path d="" fill="#FFFFFF" transform="translate(0,0)"/>
<path d="" fill="#FFFFFF" transform="translate(0,0)"/>
<path d="" fill="#FFFFFF" transform="translate(0,0)"/>
<path d="" fill="#FFFFFF" transform="translate(0,0)"/>
<path d="" fill="#FFFFFF" transform="translate(0,0)"/>
<path d="" fill="#FFFFFF" transform="translate(0,0)"/>
<path d="" fill="#FFFFFF" transform="translate(0,0)"/>
<path d="" fill="#FFFFFF" transform="translate(0,0)"/>
<path d="" fill="#FFFFFF" transform="translate(0,0)"/>
<path d="" fill="#FFFFFF" transform="translate(0,0)"/>
<path d="" fill="#FFFFFF" transform="translate(0,0)"/>
<path d="" fill="#FFFFFF" transform="translate(0,0)"/>
<path d="" fill="#FFFFFF" transform="translate(0,0)"/>
<path d="" fill="#FFFFFF" transform="translate(0,0)"/>
<path d="" fill="#FFFFFF" transform="translate(0,0)"/>
<path d="" fill="#FFFFFF" transform="translate(0,0)"/>
<path d="" fill="#FFFFFF" transform="translate(0,0)"/>
<path d="" fill="#FFFFFF" transform="translate(0,0)"/>
<path d="" fill="#FFFFFF" transform="translate(0,0)"/>
<path d="" fill="#FFFFFF" transform="translate(0,0)"/>
<path d="" fill="#FFFFFF" transform="translate(0,0)"/>
<path d="" fill="#FFFFFF" transform="translate(0,0)"/>
<path d="" fill="#FFFFFF" transform="translate(0,0)"/>
<path d="" fill="#FFFFFF" transform="translate(0,0)"/>
<path d="" fill="#FFFFFF" transform="translate(0,0)"/>
<path d="" fill="#FFFFFF" transform="translate(0,0)"/>
<path d="" fill="#FFFFFF" transform="translate(0,0)"/>
<path d="" fill="#FFFFFF" transform="translate(0,0)"/>
<path d="" fill="#FFFFFF" transform="translate(0,0)"/>
<path d="" fill="#FFFFFF" transform="translate(0,0)"/>
<path d="" fill="#FFFFFF" transform="translate(0,0)"/>
<path d="" fill="#FFFFFF" transform="translate(0,0)"/>
<path d="" fill="#FFFFFF" transform="translate(0,0)"/>
<path d="" fill="#FFFFFF" transform="translate(0,0)"/>
</svg>
